{
	"asset":{
		"generator":"Khronos glTF Blender I/O v3.5.30",
		"version":"2.0"
	},
	"scene":0,
	"scenes":[
		{
			"name":"Scene",
			"nodes":[
				0,
				1
			]
		}
	],
	"nodes":[
		{
			"mesh":0,
			"name":"Mesh_0",
			"scale":[
				0.00800000037997961,
				0.00800000037997961,
				0.00800000037997961
			]
		},
		{
			"mesh":1,
			"name":"Mesh_0.001",
			"scale":[
				0.00800000037997961,
				0.00800000037997961,
				0.00800000037997961
			]
		}
	],
	"meshes":[
		{
			"name":"Mesh_0",
			"primitives":[
				{
					"attributes":{
						"POSITION":0
					},
					"indices":1
				}
			]
		},
		{
			"name":"Mesh_0.001",
			"primitives":[
				{
					"attributes":{
						"POSITION":2
					},
					"indices":3
				}
			]
		}
	],
	"accessors":[
		{
			"bufferView":0,
			"componentType":5126,
			"count":64806,
			"max":[
				1746.69287109375,
				1347.19580078125,
				1039.711181640625
			],
			"min":[
				-1866.98291015625,
				-126.44249725341797,
				-1139.030517578125
			],
			"type":"VEC3"
		},
		{
			"bufferView":1,
			"componentType":5123,
			"count":175905,
			"type":"SCALAR"
		},
		{
			"bufferView":2,
			"componentType":5126,
			"count":4697,
			"max":[
				1799.9080810546875,
				1429.4417724609375,
				1105.426025390625
			],
			"min":[
				-1920.9459228515625,
				1262.002197265625,
				-1182.80712890625
			],
			"type":"VEC3"
		},
		{
			"bufferView":3,
			"componentType":5123,
			"count":13347,
			"type":"SCALAR"
		}
	],
	"bufferViews":[
		{
			"buffer":0,
			"byteLength":777672,
			"byteOffset":0,
			"target":34962
		},
		{
			"buffer":0,
			"byteLength":351810,
			"byteOffset":777672,
			"target":34963
		},
		{
			"buffer":0,
			"byteLength":56364,
			"byteOffset":1129484,
			"target":34962
		},
		{
			"buffer":0,
			"byteLength":26694,
			"byteOffset":1185848,
			"target":34963
		}
	],
	"buffers":[
		{
			"byteLength":1212544,
			"uri":"Sponza_LowPoly.bin"
		}
	]
}
